<svg width="1440" height="1024" viewBox="0 0 1440 1024" fill="none" xmlns="http://www.w3.org/2000/svg">
<g clip-path="url(#clip0_225_277)">
<rect width="1440" height="1024" rx="500" fill="white"/>
<path d="M129 620H456.6C462.2 636.8 478.6 651.2 505.8 663.2C533 674.4 569.4 683.2 615 689.6C661.4 695.2 715 698 775.8 698C835.8 698 883 696.4 917.4 693.2C952.6 689.2 977.4 682.8 991.8 674C1006.2 664.4 1013.4 651.6 1013.4 635.6C1013.4 620.4 1001.8 608.8 978.6 600.8C955.4 592 914.2 586 855 582.8C795.8 579.6 712.6 578 605.4 578C525.4 578 456.2 574.4 397.8 567.2C340.2 559.2 292.6 547.2 255 531.2C218.2 514.4 191 493.6 173.4 468.8C155.8 443.2 147 412.8 147 377.6C147 316.8 167.4 266.8 208.2 227.6C249.8 187.6 312.2 158 395.4 138.8C479.4 118.8 584.2 108.8 709.8 108.8C893.8 108.8 1034.2 135.6 1131 189.2C1228.6 242 1277.4 318.4 1277.4 418.4H966.6C962.6 392 937.8 372 892.2 358.4C846.6 344 781.8 336.8 697.8 336.8C614.6 336.8 552.6 341.6 511.8 351.2C471.8 360.8 451.8 377.2 451.8 400.4C451.8 412.4 457.4 422 468.6 429.2C479.8 436.4 499 442.4 526.2 447.2C554.2 451.2 593.4 454 643.8 455.6C694.2 457.2 758.2 458 835.8 458C921.4 458 994.2 462.4 1054.2 471.2C1114.2 479.2 1162.6 491.6 1199.4 508.4C1237 525.2 1264.2 546.8 1281 573.2C1297.8 598.8 1306.2 629.2 1306.2 664.4C1306.2 725.2 1287 774.8 1248.6 813.2C1210.2 851.6 1149.4 880 1066.2 898.4C983 916.8 874.2 926 739.8 926C663.8 926 593.8 921.6 529.8 912.8C466.6 904 410.2 891.2 360.6 874.4C311 856.8 269 835.6 234.6 810.8C200.2 785.2 173.8 756.8 155.4 725.6C137.8 693.6 129 658.4 129 620Z" fill="#252836"/>
</g>
<defs>
<clipPath id="clip0_225_277">
<rect width="1440" height="1024" rx="500" fill="white"/>
</clipPath>
</defs>
</svg>
